<svg width="39" height="34" viewBox="0 0 39 34" fill="none" xmlns="http://www.w3.org/2000/svg">
<path d="M22.6929 0H16.6096V0.0547707C16.3973 0.0458648 16.184 0.0374044 15.969 0.0374044C7.39713 0.0374044 0.423096 7.44886 0.423096 16.5597C0.423096 25.6706 7.39645 33.0821 15.969 33.0821C16.753 33.0821 17.5228 33.0188 18.2762 32.899H22.6924C31.227 32.899 38.1704 25.5202 38.1704 16.4497C38.1708 7.37869 31.227 0.00144024 22.6935 0.00144024L22.6929 0ZM22.6929 1.18987C25.5058 1.18987 28.1297 2.06487 30.3441 3.56905H25.558C24.3829 2.58718 23.073 1.78207 21.6617 1.18987H22.6929ZM15.969 31.8931C8.04929 31.8931 1.60554 25.0147 1.60554 16.5597C1.60554 8.10476 8.04895 1.22635 15.969 1.22635C19.1655 1.22635 22.1203 2.34803 24.5099 4.24013V4.75712H25.1284C28.3054 7.57175 30.333 11.8168 30.333 16.5589C30.3325 25.0146 23.8896 31.8934 15.9695 31.8934L15.969 31.8931ZM22.6929 31.7105H22.1646C23.4636 31.1085 24.67 30.3239 25.7562 29.3856H30.264C28.0661 30.8564 25.4721 31.7105 22.6929 31.7105H22.6929ZM31.8084 28.1954H26.9949C28.0262 27.0915 28.9124 25.8349 29.6193 24.4598H34.854C34.0325 25.8749 33.0025 27.1373 31.8084 28.1954ZM35.4747 23.2705H30.1692C30.6647 22.0913 31.0324 20.8397 31.2571 19.5349H36.694C36.44 20.8498 36.0246 22.1016 35.4746 23.2705H35.4747ZM36.9882 16.4504C36.9882 17.0926 36.9462 17.724 36.874 18.3451H31.4225C31.4823 17.7587 31.5146 17.1634 31.5146 16.5609C31.5146 15.9001 31.4739 15.2504 31.4022 14.6092H36.8802C36.9488 15.213 36.9881 15.8267 36.9881 16.4504H36.9882ZM36.7042 13.4193H31.2292C30.9912 12.1133 30.6085 10.862 30.0988 9.6842H35.5012C36.0453 10.8531 36.4546 12.1057 36.7041 13.4193H36.7042ZM29.5294 8.49444C28.7999 7.11488 27.8911 5.85787 26.8347 4.75885H31.8677C33.0525 5.81998 34.0748 7.08103 34.8871 8.49444H29.5294Z" fill="white"/>
<path d="M15.9698 5.66797C10.3121 5.66797 5.70874 10.5545 5.70874 16.5611C5.70874 22.5675 10.3117 27.4545 15.9698 27.4545C21.6274 27.4545 26.2299 22.5671 26.2299 16.5611C26.2303 10.5546 21.6274 5.66797 15.9698 5.66797ZM15.9698 26.2643C10.9638 26.2643 6.89094 21.9112 6.89094 16.5606C6.89094 11.2101 10.9634 6.85738 15.9698 6.85738C20.9757 6.85738 25.0477 11.2097 25.0477 16.5606C25.0477 21.9113 20.9761 26.2643 15.9698 26.2643Z" fill="white"/>
</svg>
