<svg width="54" height="54" viewBox="0 0 54 54" fill="none" xmlns="http://www.w3.org/2000/svg">
<path d="M15.5049 2.91941C15.4579 2.93478 15.4157 2.9628 15.3835 3.00047L9.33562 9.91263C9.24913 10.0136 9.24913 10.1624 9.33562 10.2637V14.5973C9.30156 15.3205 9.71711 15.9548 10.3753 16.3658C10.8806 16.6816 11.5252 16.8811 12.2653 16.9598C12.265 16.9688 12.2647 16.9776 12.265 16.9866V36.6156H11.6171C11.6081 36.615 11.599 36.615 11.59 36.6156C11.4517 36.6295 11.3465 36.7464 11.3471 36.8856V38.1817H10.9689C10.9511 38.1799 10.9331 38.1799 10.915 38.1817C10.7872 38.2076 10.6965 38.3212 10.6989 38.4517V40.0177C10.6992 40.1666 10.8201 40.2878 10.9689 40.2878H42.8968C43.046 40.2878 43.1668 40.1666 43.1668 40.0177V38.4517C43.1668 38.3025 43.046 38.1817 42.8968 38.1817H42.5322V36.8856C42.5319 36.7364 42.4114 36.6156 42.2625 36.6156H41.6146V16.9465C42.2827 16.8552 42.9028 16.6509 43.41 16.3525C44.1178 15.9361 44.624 15.3187 44.6653 14.5704V14.5568V10.264C44.756 10.1573 44.75 9.99911 44.6517 9.89936L38.1042 3.00079C38.0545 2.94986 37.9864 2.92093 37.9153 2.91973H15.5863C15.5595 2.91581 15.5317 2.91549 15.5049 2.91941ZM15.7074 3.45941H20.2435L16.3688 9.81799H10.1317L15.7074 3.45941ZM20.8913 3.45941H25.1167L23.2942 9.81799H16.9895L20.8913 3.45941ZM25.6838 3.45941H28.3163L30.1388 9.81799H23.8613L25.6838 3.45941ZM28.8835 3.45941H33.1088L37.0103 9.81799H30.6924L28.8835 3.45941ZM33.7435 3.45941H37.8071L43.8284 9.81799H37.6317L33.7435 3.45941ZM9.87548 10.358H16.3148C16.2326 10.4053 16.1813 10.4927 16.1798 10.5876V14.6376C16.1798 14.7524 16.1982 14.8651 16.2202 14.9751C16.0843 15.3021 15.8044 15.5995 15.3966 15.8526C14.8003 16.223 13.936 16.4601 12.9802 16.4601C12.0199 16.4601 11.2053 16.2483 10.658 15.9065C10.1111 15.5648 9.84681 15.1363 9.8752 14.624C9.8755 14.615 9.8758 14.606 9.8755 14.5972L9.87548 10.358ZM16.8548 10.358H23.0648V14.3269C23.0648 14.5041 23.0959 14.6744 23.1459 14.8398C23.0763 15.2647 22.7804 15.6588 22.282 15.9737C21.7067 16.3371 20.8828 16.5676 19.9598 16.5676C19.0368 16.5676 18.2051 16.3377 17.6245 15.9737C17.1887 15.7007 16.8922 15.3756 16.7741 15.0151C16.8241 14.853 16.8552 14.677 16.8552 14.5023V10.3848C16.8558 10.3757 16.8554 10.3667 16.8548 10.358ZM23.6995 10.358H30.0581V14.3269C30.0581 14.8533 29.7423 15.3397 29.167 15.7173C28.5917 16.0948 27.7661 16.3383 26.8448 16.3383C25.9237 16.3383 25.0901 16.0954 24.5095 15.7173C24.0997 15.4503 23.8164 15.1363 23.6859 14.7858C23.6901 14.7367 23.6995 14.6873 23.6995 14.6373L23.6995 10.358ZM30.6926 10.358H37.132V14.3001C37.132 14.8266 36.8162 15.3129 36.2409 15.6905C35.6657 16.0681 34.84 16.3115 33.9188 16.3115C32.9975 16.3115 32.1773 16.0687 31.5966 15.6905C31.0159 15.3123 30.6919 14.8247 30.6919 14.3001L30.6926 10.358ZM37.6858 10.358H44.1251V14.5566C44.0911 15.0731 43.7406 15.5395 43.1398 15.893C42.7095 16.1461 42.161 16.3233 41.5601 16.4059C41.4957 16.3254 41.3911 16.2889 41.2904 16.3115C41.2103 16.326 41.141 16.3754 41.1015 16.4465C41.003 16.4517 40.9047 16.4601 40.8044 16.4601C39.9172 16.4601 39.1226 16.216 38.5633 15.839C38.004 15.4624 37.6858 14.9772 37.6858 14.4487L37.6858 10.358ZM30.3825 15.1911C30.5832 15.5648 30.905 15.8921 31.3004 16.1497C31.9868 16.5966 32.9041 16.8518 33.9193 16.8518C34.9348 16.8518 35.8569 16.5972 36.5382 16.1497C36.879 15.9261 37.1635 15.6531 37.3618 15.3397C37.5547 15.7158 37.8674 16.0385 38.2529 16.2983C38.9182 16.7467 39.8198 17.0004 40.8043 17.0004C40.895 17.0004 40.9848 17.0043 41.0743 17.0004V36.6155H24.7254V23.7095C24.7254 23.5604 24.6046 23.4395 24.4554 23.4395H18.2047C18.1776 23.4356 18.1508 23.4356 18.124 23.4395C18.0071 23.4763 17.9293 23.5872 17.9351 23.7095V36.6155H12.805V16.9865C12.8644 16.9877 12.9202 17.0001 12.9804 17.0001C14.0255 17.0001 14.9783 16.7476 15.6804 16.3115C15.998 16.1142 16.2623 15.8797 16.4633 15.6094C16.6652 15.9309 16.9686 16.2082 17.3272 16.433C18.0133 16.863 18.946 17.108 19.9597 17.108C20.9734 17.108 21.884 16.8633 22.565 16.433C22.9619 16.1823 23.2855 15.8698 23.4829 15.5016C23.6782 15.7592 23.9325 15.9858 24.2254 16.1766C24.9118 16.6235 25.8291 16.8787 26.8443 16.8787C27.8598 16.8787 28.7819 16.6241 29.4632 16.1766C29.8652 15.9129 30.1843 15.5757 30.3811 15.1912L30.3825 15.1911ZM18.476 23.9797H24.1867V36.6157H18.476V23.9797ZM11.8881 37.1563H18.1521C18.1879 37.1635 18.2247 37.1635 18.2603 37.1563H24.4028C24.4383 37.1635 24.4751 37.1635 24.5109 37.1563H41.993V38.1824H11.888L11.8881 37.1563ZM11.2403 38.7224H42.6282V39.7485H11.2403V38.7224Z" fill="white"/>
</svg>
