<svg width="34" height="34" viewBox="0 0 34 34" fill="none" xmlns="http://www.w3.org/2000/svg">
<path d="M33.4793 0.121895C33.3206 -0.0406317 33.0625 -0.0406317 32.9038 0.121895L0.517225 33.2874C0.358516 33.45 0.358516 33.7142 0.517225 33.8768C0.597009 33.9585 0.701199 33.9986 0.805396 33.9986C0.909594 33.9986 1.01379 33.9579 1.09357 33.8768L33.4801 0.711237C33.638 0.549 33.638 0.284712 33.4793 0.122185L33.4793 0.121895Z" fill="white"/>
<path d="M7.6995 14.9518C9.65 14.9518 11.4841 14.1732 12.8639 12.7584C14.2421 11.3454 15.0007 9.46807 14.9984 7.47327C14.9984 3.35429 11.7268 0.00195312 7.6931 0.00195312C3.6726 0.00195312 0.400879 3.35481 0.400879 7.47624C0.401447 11.5978 3.67558 14.9513 7.69892 14.9513L7.6995 14.9518ZM7.70603 0.836093C11.2788 0.836093 14.185 3.8139 14.185 7.47349C14.1867 9.24582 13.5136 10.9139 12.2881 12.1693C11.0622 13.4256 9.4334 14.1176 7.69949 14.1176C4.12417 14.1176 1.21571 11.1384 1.21571 7.47617C1.21571 3.81539 4.12184 0.836168 7.70603 0.836168V0.836093Z" fill="white"/>
<path d="M26.2997 19.0477C22.2783 19.0477 19.0017 22.3997 18.9966 26.5213C18.9966 30.6443 22.2724 34 26.2997 34C30.327 34 33.6028 30.648 33.6028 26.5265C33.6028 22.4023 30.3262 19.0477 26.2997 19.0477ZM26.2997 33.1656C22.7213 33.1656 19.8111 30.1855 19.8111 26.5216C19.816 22.8594 22.7261 19.881 26.2997 19.881C29.8782 19.881 32.7883 22.8611 32.7883 26.5256C32.7883 30.1861 29.8773 33.1656 26.2997 33.1656V33.1656Z" fill="white"/>
</svg>
