<svg width="58" height="58" viewBox="0 0 58 58" fill="none" xmlns="http://www.w3.org/2000/svg">
<path d="M11.9299 34.8837H12.8578V41.5141H11.9299V34.8837Z" fill="white"/>
<path d="M18.792 31.2786H19.7199V41.5147H18.792V31.2786Z" fill="white"/>
<path d="M25.6501 26.8514H26.5781V41.5138H25.6501V26.8514Z" fill="white"/>
<path d="M32.5083 30.2155H33.4362V41.5139H32.5083V30.2155Z" fill="white"/>
<path d="M39.3662 23.7013H40.2941V41.5139H39.3662V23.7013Z" fill="white"/>
<path d="M46.2236 17.6825H47.1516V41.5139H46.2236V17.6825Z" fill="white"/>
<path d="M47.1516 4.88599H37.3703V5.8139H45.6343L36.8365 14.5876L32.7765 10.5276L23.6912 19.1116L19.1626 14.5785L10.3284 21.6777L10.9129 22.4014L19.0934 15.822L23.6729 20.4063L32.7582 11.8223L36.837 15.9008L46.2239 6.54209V14.6666H47.1518L47.1516 4.88599Z" fill="white"/>
</svg>
