<svg width="53" height="39" viewBox="0 0 53 39" fill="none" xmlns="http://www.w3.org/2000/svg">
<path d="M38.9538 38.0979C38.9538 38.0979 37.327 36.1966 35.9713 34.5163C41.8912 32.8803 44.1507 29.2545 44.1507 29.2545C42.2979 30.4484 40.5355 31.2885 38.9538 31.8633C36.6943 32.7919 34.5252 33.4109 32.4013 33.7647C28.063 34.5606 24.0863 34.3395 20.697 33.7204C18.1212 33.234 15.9069 32.5266 14.0541 31.8191C13.0147 31.4211 11.885 30.9347 10.7552 30.3157C10.6197 30.2273 10.4841 30.1831 10.3485 30.0946C10.2581 30.0504 10.2129 30.0062 10.1678 29.962C9.35434 29.5198 8.90244 29.2103 8.90244 29.2103C8.90244 29.2103 11.0716 32.7477 16.8107 34.4279C15.455 36.1082 13.783 38.0979 13.783 38.0979C3.79596 37.7884 0 31.3769 0 31.3769C0 17.139 6.50737 5.59826 6.50737 5.59826C13.0147 0.822794 19.2058 0.955446 19.2058 0.955446L19.6577 1.48605C11.5235 3.78535 7.77269 7.27851 7.77269 7.27851C7.77269 7.27851 8.76687 6.7479 10.4389 5.99621C15.2742 3.918 19.1154 3.34318 20.697 3.21053C20.9682 3.16631 21.1941 3.12209 21.4653 3.12209C24.2219 2.76835 27.34 2.67992 30.5937 3.03366C34.8867 3.52005 39.4961 4.75813 44.1959 7.27851C44.1959 7.27851 40.6258 3.96222 32.9435 1.66292L33.5762 0.955446C33.5762 0.955446 39.7672 0.822794 46.2746 5.59826C46.2746 5.59826 52.782 17.139 52.782 31.3769C52.782 31.3769 48.9408 37.7884 38.9538 38.0979ZM17.9404 17.4485C15.3646 17.4485 13.3311 19.6593 13.3311 22.3566C13.3311 25.0539 15.4098 27.2647 17.9404 27.2647C20.5163 27.2647 22.5498 25.0539 22.5498 22.3566C22.595 19.6593 20.5163 17.4485 17.9404 17.4485ZM34.4348 17.4485C31.859 17.4485 29.8254 19.6593 29.8254 22.3566C29.8254 25.0539 31.9042 27.2647 34.4348 27.2647C37.0106 27.2647 39.0442 25.0539 39.0442 22.3566C39.0442 19.6593 37.0106 17.4485 34.4348 17.4485Z" fill="#74FAC9"/>
</svg>
