<svg width="59" height="51" viewBox="0 0 59 51" fill="none" xmlns="http://www.w3.org/2000/svg">
<g filter="url(#filter0_d_91_2038)">
<path d="M31.0846 31.5796H27.2866L29.092 11.5342H29.2792L31.0846 31.5796ZM27.4918 31.3946H30.8794L29.1856 12.5884L27.4918 31.3946Z" fill="url(#paint0_linear_91_2038)"/>
<path d="M31.285 31.8889H27.0862L29.092 11.2266H29.2786L31.2844 31.8889H31.285ZM27.2932 31.7038H31.0786L29.1856 12.2063L27.2926 31.7038H27.2932Z" fill="url(#paint1_linear_91_2038)"/>
<path d="M31.5076 32.2076H26.8643L29.1862 10.0156L31.5082 32.2076H31.5076ZM27.0719 32.0225H31.2994L29.1856 11.819L27.0719 32.0225Z" fill="url(#paint2_linear_91_2038)"/>
<path d="M31.7549 32.5357H26.6165L29.1857 9.75293L31.7549 32.5357ZM26.8265 32.3507H31.5455L29.1863 11.428L26.8271 32.3507H26.8265Z" fill="url(#paint3_linear_91_2038)"/>
<path d="M32.0297 32.8752H26.3423L29.1863 9.47559L32.0303 32.8752H32.0297ZM26.5535 32.6901H31.8179L29.1857 11.0312L26.5535 32.6901Z" fill="url(#paint4_linear_91_2038)"/>
<path d="M32.3344 33.2241H26.0361L29.1849 9.18262L32.3337 33.2241H32.3344ZM26.2497 33.039H32.1207L29.1855 10.6277L26.2497 33.039Z" fill="url(#paint5_linear_91_2038)"/>
<path d="M32.6735 33.5832H25.6973L29.1851 8.87598L32.6729 33.5832H32.6735ZM25.9133 33.3981H32.4581L29.1857 10.2181L25.9133 33.3981Z" fill="url(#paint6_linear_91_2038)"/>
<path d="M33.0501 33.9552H25.3203L29.1849 8.55469L33.0495 33.9552H33.0501ZM25.5387 33.7701H32.8323L29.1855 9.80165L25.5387 33.7701Z" fill="url(#paint7_linear_91_2038)"/>
<path d="M33.4692 34.337H24.9023L29.1858 8.21777L33.4692 34.337ZM25.1225 34.152H33.2484L29.1852 9.3772L25.1219 34.152H25.1225Z" fill="url(#paint8_linear_91_2038)"/>
<path d="M33.9341 34.7318H24.4373L29.1857 7.86621L33.9341 34.7318ZM24.6605 34.5468H33.7109L29.1857 8.94405L24.6605 34.5468Z" fill="url(#paint9_linear_91_2038)"/>
<path d="M34.4505 35.1386H23.9199L29.1849 7.49805L34.4499 35.1386H34.4505ZM24.1461 34.9536H34.2243L29.1855 8.50084L24.1467 34.9536H24.1461Z" fill="url(#paint10_linear_91_2038)"/>
<path d="M35.0248 35.5578H23.3464L29.1856 7.11621L35.0248 35.5578ZM23.5756 35.3727H34.795L29.185 8.04921L23.575 35.3727H23.5756Z" fill="url(#paint11_linear_91_2038)"/>
<path d="M35.6625 35.9899H22.7085L29.1855 6.71777L35.6625 35.9899ZM22.9413 35.8049H35.4297L29.1855 7.58576L22.9413 35.8049Z" fill="url(#paint12_linear_91_2038)"/>
<path d="M36.3713 36.4361H21.9995L29.1851 6.30469L36.3707 36.4361H36.3713ZM22.2365 36.251H36.1343L29.1857 7.11354L22.2371 36.251H22.2365Z" fill="url(#paint13_linear_91_2038)"/>
<path d="M37.1589 36.8947H21.2122L29.1855 5.875L37.1589 36.8947ZM21.454 36.7097H36.9177L29.1855 6.62826L21.4534 36.7097H21.454Z" fill="url(#paint14_linear_91_2038)"/>
<path d="M38.0338 37.368H20.3374L29.1856 5.42871L38.0338 37.368ZM20.5834 37.1829H37.7878L29.1856 6.13113L20.5834 37.1829Z" fill="url(#paint15_linear_91_2038)"/>
<path d="M39.0059 37.8563H19.3655L29.1857 4.9668L39.0059 37.8563ZM19.6169 37.6712H38.7551L29.1857 5.62249L19.6169 37.6712Z" fill="url(#paint16_linear_91_2038)"/>
<path d="M40.0858 38.3598H18.2854L29.1856 4.4873L40.0852 38.3598H40.0858ZM18.5422 38.1748H39.829L29.1856 5.09927L18.5422 38.1753V38.1748Z" fill="url(#paint17_linear_91_2038)"/>
<path d="M41.2852 38.8779H17.0859L29.1855 3.99023L41.2852 38.8785V38.8779ZM17.3481 38.6929H41.023L29.1855 4.56199L17.3481 38.6929Z" fill="url(#paint18_linear_91_2038)"/>
<path d="M42.6185 39.4124H15.7529L29.1857 3.47559L42.6185 39.4124ZM16.0217 39.2273H42.3491L29.1857 4.01068L16.0217 39.2273Z" fill="url(#paint19_linear_91_2038)"/>
<path d="M44.0999 39.9644H14.2715L14.3225 39.8379L29.1857 2.94531L44.0999 39.965V39.9644ZM14.5481 39.7793H43.8239L29.1857 3.44611L14.5481 39.7793Z" fill="url(#paint20_linear_91_2038)"/>
<path d="M45.7455 40.5335H12.6255L29.1855 2.39453L45.7455 40.5335ZM12.9099 40.3484H45.4611L29.1855 2.86459L12.9099 40.3484Z" fill="url(#paint21_linear_91_2038)"/>
<path d="M47.5745 41.1189H10.7969L29.1857 1.82422L47.5745 41.1189ZM11.0903 40.9338H47.2811L29.1857 2.2659L11.0903 40.9338Z" fill="url(#paint22_linear_91_2038)"/>
<path d="M49.606 41.7214H8.76514L29.1855 1.23633L49.606 41.722V41.7214ZM9.06814 41.5364H49.303L29.1855 1.65198L9.06814 41.5369V41.5364Z" fill="url(#paint23_linear_91_2038)"/>
<path d="M51.8633 42.3452H6.50806L29.1857 0.62793L51.8633 42.3452ZM6.82126 42.1602H51.5501L29.1857 1.01993L6.82126 42.1602Z" fill="url(#paint24_linear_91_2038)"/>
<path d="M54.3712 42.9884H4L29.1856 0L54.3712 42.9878V42.9884ZM4.3246 42.8034H54.0466L29.1856 0.370131L4.3246 42.8034Z" fill="url(#paint25_linear_91_2038)"/>
</g>
<defs>
<filter id="filter0_d_91_2038" x="0" y="0" width="58.3711" height="50.9883" filterUnits="userSpaceOnUse" color-interpolation-filters="sRGB">
<feFlood flood-opacity="0" result="BackgroundImageFix"/>
<feColorMatrix in="SourceAlpha" type="matrix" values="0 0 0 0 0 0 0 0 0 0 0 0 0 0 0 0 0 0 127 0" result="hardAlpha"/>
<feOffset dy="4"/>
<feGaussianBlur stdDeviation="2"/>
<feComposite in2="hardAlpha" operator="out"/>
<feColorMatrix type="matrix" values="0 0 0 0 1 0 0 0 0 1 0 0 0 0 1 0 0 0 0.4 0"/>
<feBlend mode="normal" in2="BackgroundImageFix" result="effect1_dropShadow_91_2038"/>
<feBlend mode="normal" in="SourceGraphic" in2="effect1_dropShadow_91_2038" result="shape"/>
</filter>
<linearGradient id="paint0_linear_91_2038" x1="27.2866" y1="21.5572" x2="31.0846" y2="21.5572" gradientUnits="userSpaceOnUse">
<stop stop-color="#3DDEED"/>
<stop offset="1" stop-color="#CB00DD"/>
</linearGradient>
<linearGradient id="paint1_linear_91_2038" x1="1979.57" y1="10364.7" x2="2273.4" y2="10364.7" gradientUnits="userSpaceOnUse">
<stop stop-color="#3DDEED"/>
<stop offset="1" stop-color="#CB00DD"/>
</linearGradient>
<linearGradient id="paint2_linear_91_2038" x1="2169.13" y1="10962.6" x2="2528.58" y2="10962.6" gradientUnits="userSpaceOnUse">
<stop stop-color="#3DDEED"/>
<stop offset="1" stop-color="#CB00DD"/>
</linearGradient>
<linearGradient id="paint3_linear_91_2038" x1="2375.8" y1="11266.7" x2="2815.86" y2="11266.7" gradientUnits="userSpaceOnUse">
<stop stop-color="#3DDEED"/>
<stop offset="1" stop-color="#CB00DD"/>
</linearGradient>
<linearGradient id="paint4_linear_91_2038" x1="2600.73" y1="11583.4" x2="3139.95" y2="11583.4" gradientUnits="userSpaceOnUse">
<stop stop-color="#3DDEED"/>
<stop offset="1" stop-color="#CB00DD"/>
</linearGradient>
<linearGradient id="paint5_linear_91_2038" x1="2844.61" y1="11912.1" x2="3505.68" y2="11912.1" gradientUnits="userSpaceOnUse">
<stop stop-color="#3DDEED"/>
<stop offset="1" stop-color="#CB00DD"/>
</linearGradient>
<linearGradient id="paint6_linear_91_2038" x1="3108.27" y1="12252.3" x2="3919.32" y2="12252.3" gradientUnits="userSpaceOnUse">
<stop stop-color="#3DDEED"/>
<stop offset="1" stop-color="#CB00DD"/>
</linearGradient>
<linearGradient id="paint7_linear_91_2038" x1="3392.34" y1="12606.2" x2="4388.1" y2="12606.2" gradientUnits="userSpaceOnUse">
<stop stop-color="#3DDEED"/>
<stop offset="1" stop-color="#CB00DD"/>
</linearGradient>
<linearGradient id="paint8_linear_91_2038" x1="3696.73" y1="12972.5" x2="4919.91" y2="12972.5" gradientUnits="userSpaceOnUse">
<stop stop-color="#3DDEED"/>
<stop offset="1" stop-color="#CB00DD"/>
</linearGradient>
<linearGradient id="paint9_linear_91_2038" x1="4021.27" y1="13352" x2="5524.43" y2="13352" gradientUnits="userSpaceOnUse">
<stop stop-color="#3DDEED"/>
<stop offset="1" stop-color="#CB00DD"/>
</linearGradient>
<linearGradient id="paint10_linear_91_2038" x1="4365.15" y1="13746" x2="6213.27" y2="13746" gradientUnits="userSpaceOnUse">
<stop stop-color="#3DDEED"/>
<stop offset="1" stop-color="#CB00DD"/>
</linearGradient>
<linearGradient id="paint11_linear_91_2038" x1="4726.01" y1="14152.5" x2="6999.09" y2="14152.5" gradientUnits="userSpaceOnUse">
<stop stop-color="#3DDEED"/>
<stop offset="1" stop-color="#CB00DD"/>
</linearGradient>
<linearGradient id="paint12_linear_91_2038" x1="5101.32" y1="14573.7" x2="7898.08" y2="14573.7" gradientUnits="userSpaceOnUse">
<stop stop-color="#3DDEED"/>
<stop offset="1" stop-color="#CB00DD"/>
</linearGradient>
<linearGradient id="paint13_linear_91_2038" x1="5486.74" y1="15009" x2="8929.08" y2="15009" gradientUnits="userSpaceOnUse">
<stop stop-color="#3DDEED"/>
<stop offset="1" stop-color="#CB00DD"/>
</linearGradient>
<linearGradient id="paint14_linear_91_2038" x1="5875.43" y1="15458.7" x2="10113.8" y2="15458.7" gradientUnits="userSpaceOnUse">
<stop stop-color="#3DDEED"/>
<stop offset="1" stop-color="#CB00DD"/>
</linearGradient>
<linearGradient id="paint15_linear_91_2038" x1="6258.85" y1="15923.6" x2="11478.2" y2="15923.6" gradientUnits="userSpaceOnUse">
<stop stop-color="#3DDEED"/>
<stop offset="1" stop-color="#CB00DD"/>
</linearGradient>
<linearGradient id="paint16_linear_91_2038" x1="6625.01" y1="16404" x2="13054.1" y2="16404" gradientUnits="userSpaceOnUse">
<stop stop-color="#3DDEED"/>
<stop offset="1" stop-color="#CB00DD"/>
</linearGradient>
<linearGradient id="paint17_linear_91_2038" x1="6958.01" y1="16900.4" x2="14879" y2="16900.4" gradientUnits="userSpaceOnUse">
<stop stop-color="#3DDEED"/>
<stop offset="1" stop-color="#CB00DD"/>
</linearGradient>
<linearGradient id="paint18_linear_91_2038" x1="7236.68" y1="17413.2" x2="16996.7" y2="17413.2" gradientUnits="userSpaceOnUse">
<stop stop-color="#3DDEED"/>
<stop offset="1" stop-color="#CB00DD"/>
</linearGradient>
<linearGradient id="paint19_linear_91_2038" x1="7433.88" y1="17942.1" x2="19463.2" y2="17942.1" gradientUnits="userSpaceOnUse">
<stop stop-color="#3DDEED"/>
<stop offset="1" stop-color="#CB00DD"/>
</linearGradient>
<linearGradient id="paint20_linear_91_2038" x1="7514.03" y1="18488" x2="22342.9" y2="18488" gradientUnits="userSpaceOnUse">
<stop stop-color="#3DDEED"/>
<stop offset="1" stop-color="#CB00DD"/>
</linearGradient>
<linearGradient id="paint21_linear_91_2038" x1="7431.5" y1="19052.4" x2="25713.7" y2="19052.4" gradientUnits="userSpaceOnUse">
<stop stop-color="#3DDEED"/>
<stop offset="1" stop-color="#CB00DD"/>
</linearGradient>
<linearGradient id="paint22_linear_91_2038" x1="7128" y1="19634.6" x2="29671.2" y2="19634.6" gradientUnits="userSpaceOnUse">
<stop stop-color="#3DDEED"/>
<stop offset="1" stop-color="#CB00DD"/>
</linearGradient>
<linearGradient id="paint23_linear_91_2038" x1="6529.41" y1="20234.4" x2="34328.9" y2="20234.4" gradientUnits="userSpaceOnUse">
<stop stop-color="#3DDEED"/>
<stop offset="1" stop-color="#CB00DD"/>
</linearGradient>
<linearGradient id="paint24_linear_91_2038" x1="5541.66" y1="20854.3" x2="39826.6" y2="20854.3" gradientUnits="userSpaceOnUse">
<stop stop-color="#3DDEED"/>
<stop offset="1" stop-color="#CB00DD"/>
</linearGradient>
<linearGradient id="paint25_linear_91_2038" x1="4045.79" y1="21494.2" x2="46333.4" y2="21494.2" gradientUnits="userSpaceOnUse">
<stop stop-color="#3DDEED"/>
<stop offset="1" stop-color="#CB00DD"/>
</linearGradient>
</defs>
</svg>
