<svg width="68" height="69" viewBox="0 0 68 69" fill="none" xmlns="http://www.w3.org/2000/svg">
<path style="mix-blend-mode:screen" d="M43.9632 68.063C56.4457 68.063 66.5648 52.8266 66.5648 34.0315C66.5648 15.2364 56.4457 0 43.9632 0C31.4807 0 21.3616 15.2364 21.3616 34.0315C21.3616 52.8266 31.4807 68.063 43.9632 68.063Z" fill="url(#paint0_radial_107_786)"/>
<path fill-rule="evenodd" clip-rule="evenodd" d="M40.6767 53.5577L34.7822 46.9909L30.501 25.3352L37.9579 6.09989L54.7827 1.02441L59.5895 10.1515L50.4203 50.785L42.6446 54.8737L40.6767 53.5577Z" fill="url(#paint1_radial_107_786)"/>
<path style="mix-blend-mode:screen" opacity="0.96" fill-rule="evenodd" clip-rule="evenodd" d="M37.958 6.09989L33.3914 21.1468L43.3659 20.742L59.5896 10.1515L54.7828 1.02441L37.958 6.09989Z" fill="url(#paint2_linear_107_786)"/>
<g style="mix-blend-mode:multiply" opacity="0.5">
<path fill-rule="evenodd" clip-rule="evenodd" d="M50.4205 50.7849L48.894 36.7148L43.366 20.7418L59.5897 10.1514L50.4205 50.7849Z" fill="#6746B3"/>
</g>
<path fill-rule="evenodd" clip-rule="evenodd" d="M33.3913 21.1465L30.501 25.3349L37.9579 6.09961L33.3913 21.1465Z" fill="white"/>
<g style="mix-blend-mode:multiply" opacity="0.8">
<path fill-rule="evenodd" clip-rule="evenodd" d="M50.4204 50.7852L40.6768 53.5578L42.6447 54.8739L50.4204 50.7852Z" fill="#6746B3"/>
</g>
<g style="mix-blend-mode:multiply" opacity="0.2">
<path fill-rule="evenodd" clip-rule="evenodd" d="M34.7822 46.9902L48.8938 36.7142L43.3658 20.7412L33.3913 21.1461L30.501 25.3345L34.7822 46.9902Z" fill="#6746B3"/>
</g>
<g style="mix-blend-mode:soft-light">
<path fill-rule="evenodd" clip-rule="evenodd" d="M34.7824 46.9906C34.7824 46.9906 30.9227 26.8292 31.2279 25.3342C31.533 23.8392 34.1119 22.257 35.9746 21.927C37.8373 21.5965 42.0133 23.1886 43.3653 24.2707C44.7173 25.3522 48.8933 36.7146 48.8933 36.7146L44.1911 22.9187L41.0185 20.8369L33.3901 21.1464L30.5005 25.3348L34.7817 46.9912L34.7824 46.9906Z" fill="#B5CAF1"/>
</g>
<g style="mix-blend-mode:soft-light">
<path fill-rule="evenodd" clip-rule="evenodd" d="M34.7822 46.9905C34.7822 46.9905 38.8741 51.4903 40.6767 52.0765C42.4793 52.6622 47.9627 50.6342 48.8938 50.0486C49.8254 49.463 49.1104 38.7109 49.1104 38.7109L50.4203 50.7852L40.6767 53.5579L34.7822 46.9912V46.9905Z" fill="#C7D7F4"/>
</g>
<g style="mix-blend-mode:soft-light">
<path fill-rule="evenodd" clip-rule="evenodd" d="M36.1658 48.5329C36.1658 48.5329 35.2861 47.8606 37.9579 45.2972C40.629 42.7337 48.8938 36.7148 48.8938 36.7148L34.7822 46.9915L36.1658 48.5329Z" fill="#F9F9F4"/>
</g>
<g style="mix-blend-mode:soft-light">
<path fill-rule="evenodd" clip-rule="evenodd" d="M48.894 36.7148C48.894 36.7148 49.8443 43.8777 50.4206 43.8987C50.9969 43.9198 59.5898 10.1514 59.5898 10.1514L50.4206 50.7849L48.894 36.7148Z" fill="#F9F9F4"/>
</g>
<g style="mix-blend-mode:soft-light">
<path fill-rule="evenodd" clip-rule="evenodd" d="M54.7827 1.02441C54.7827 1.02441 40.9051 4.59563 38.874 6.78516C36.843 8.9747 34.0369 19.3287 34.7129 20.0951C35.3889 20.8614 40.5869 20.8026 46.8206 17.9619C53.0543 15.1211 58.5681 9.30898 58.5681 9.30898L55.8319 3.01647L59.5895 10.1515L46.49 18.7022L41.019 20.8373L33.3906 21.1468L37.9573 6.10051L54.782 1.02503L54.7827 1.02441Z" fill="#B5CAF1"/>
</g>
<g style="mix-blend-mode:soft-light">
<path fill-rule="evenodd" clip-rule="evenodd" d="M45.9065 27.9493L45.0454 22.919L46.806 19.0884L59.5897 10.1514L46.4909 18.7021L44.1924 22.919L45.9065 27.9493Z" fill="#F9F9F4"/>
</g>
<path fill-rule="evenodd" clip-rule="evenodd" d="M41.0198 20.8372L46.4908 18.7021L44.1923 22.919L41.0198 20.8372Z" fill="#FF83BF"/>
<path fill-rule="evenodd" clip-rule="evenodd" d="M39.911 46.8039C39.4331 47.4403 40.5313 47.873 40.5331 47.1091C40.5337 46.8046 40.1153 46.3087 39.911 46.7588V46.8039Z" fill="#FF1FC7"/>
<path fill-rule="evenodd" clip-rule="evenodd" d="M34.6399 41.4228C34.4276 40.7028 33.881 38.3257 34.947 38.1425C35.6737 38.0175 36.1083 38.7263 36.2377 39.1534C36.4488 39.8517 36.7422 41.2847 36.2723 41.8097C35.9393 42.1817 34.9123 41.9675 34.6399 41.4228Z" fill="#FF1FC7"/>
<path fill-rule="evenodd" clip-rule="evenodd" d="M36.2606 37.4304C36.0328 36.9513 36.3194 36.3756 36.6122 37.0274C36.7304 37.2911 36.7211 37.5418 36.351 37.4756L36.2606 37.4304Z" fill="#FF1FC7"/>
<g style="mix-blend-mode:soft-light" opacity="0.5">
<path fill-rule="evenodd" clip-rule="evenodd" d="M41.3979 29.9037C41.4611 30.6292 42.004 33.096 43.0922 32.9054C43.9057 32.763 44.1755 30.7474 44.2152 30.1067C44.2727 29.1751 43.6927 27.8831 42.6162 27.721C41.5583 27.5612 41.1745 29.3558 41.3979 29.9037Z" fill="#FF1FC7"/>
</g>
<path fill-rule="evenodd" clip-rule="evenodd" d="M44.147 33.1494C43.5819 32.6777 44.4683 32.1038 44.7902 32.8881C45.0118 33.4286 44.2993 33.6155 44.1922 33.1494H44.147Z" fill="#FF1FC7"/>
<path fill-rule="evenodd" clip-rule="evenodd" d="M46.9414 41.3955C46.9291 42.0077 47.0869 42.8998 47.81 42.3891C48.4067 41.9675 48.3758 41.0222 48.3392 40.3784C48.3021 39.7278 47.8087 38.9423 47.2528 39.7377C46.9371 40.1896 46.8474 41.2903 46.9414 41.3955Z" fill="#FF1FC7"/>
<path opacity="0.5" fill-rule="evenodd" clip-rule="evenodd" d="M50.0057 37.8362C49.8386 36.902 50.9052 36.4483 51.0878 37.4134C51.1986 37.9984 50.4576 38.1513 50.1413 37.7006L50.0064 37.8356L50.0057 37.8362Z" fill="#FF1FC7"/>
<path fill-rule="evenodd" clip-rule="evenodd" d="M49.3298 42.7988C49.3663 43.4191 49.2022 44.0579 48.8351 44.5581C48.5399 44.9605 48.2031 45.1085 47.8416 45.4217C47.5364 45.686 47.381 46.1986 46.9489 46.2729C46.2377 46.3954 45.4589 45.5189 44.9321 45.1827C44.1596 44.69 44.2704 45.5746 44.2413 46.2246C44.2029 47.085 44.2493 48.0043 43.9819 48.8375C43.7467 49.5705 43.1388 49.3705 42.5872 49.7166C42.3266 49.88 42.1991 50.3158 41.8976 50.3201C40.7945 50.3375 42.3928 48.926 42.4684 48.809C43.0311 47.9331 41.4928 48.1603 41.0056 48.0755C39.934 47.8885 39.198 46.9488 38.0163 47.3989C37.2969 47.6731 37.1069 48.1826 37.1725 48.8821C37.2202 49.3866 37.4071 49.7983 37.7334 50.1932C38.2608 50.8321 38.9343 51.4802 39.5496 52.0336C40.3822 52.7833 41.2637 53.1095 42.3891 52.7808C44.3508 52.2076 46.2773 51.313 48.1827 50.5727C49.0797 50.2242 49.3242 49.7537 49.3316 48.7738C49.3446 47.0665 49.4108 45.361 49.331 42.7988H49.3298Z" fill="#FF1FC7"/>
<g style="mix-blend-mode:soft-light" opacity="0.5">
<path fill-rule="evenodd" clip-rule="evenodd" d="M48.3379 30.7155C48.3082 31.259 48.6072 32.8982 49.3408 33.027C50.2248 33.1824 50.4352 31.3116 50.4786 30.7793C50.5281 30.1714 50.3962 27.486 49.2027 28.313C48.5986 28.7321 48.2061 30.2939 48.3373 30.7155H48.3379Z" fill="#FF1FC7"/>
</g>
<path opacity="0.5" fill-rule="evenodd" clip-rule="evenodd" d="M50.2763 33.5546C50.0894 33.1485 50.5388 32.8817 50.8279 33.1479C51.0489 33.3516 50.9808 33.7768 50.9306 34.0257C50.8885 34.2362 50.7016 34.9734 50.3642 34.7772C50.1352 34.6441 50.2311 33.8375 50.2311 33.5992L50.2763 33.554V33.5546Z" fill="#FF1FC7"/>
<path opacity="0.5" fill-rule="evenodd" clip-rule="evenodd" d="M56.1113 15.3466C55.9243 14.9405 56.3737 14.6737 56.6628 14.9399C56.8838 15.1436 56.8157 15.5688 56.7656 15.8177C56.7235 16.0282 56.5366 16.7654 56.1992 16.5692C55.9701 16.4361 56.0661 15.6295 56.0661 15.3912L56.1113 15.346V15.3466Z" fill="#FF1FC7"/>
<path opacity="0.5" fill-rule="evenodd" clip-rule="evenodd" d="M53.2506 34.7269C52.2292 33.5953 52.0138 31.425 52.4824 30.0315C52.8551 28.9229 54.0715 28.2376 54.9629 27.5566C55.2928 27.7968 55.1659 28.1788 55.0978 28.5415C54.9078 29.5586 54.7159 30.5794 54.5122 31.5946C54.3383 32.4637 54.2312 33.8838 53.2506 34.7263V34.7269Z" fill="#FF1FC7"/>
<path fill-rule="evenodd" clip-rule="evenodd" d="M46.8196 47.3278C46.187 46.5304 47.0493 45.2651 47.6937 46.3633C48.0633 46.9935 47.6677 47.6528 46.9403 47.3278H46.8202H46.8196Z" fill="#FF6BFF"/>
<path fill-rule="evenodd" clip-rule="evenodd" d="M39.4436 45.7952C38.3015 46.1332 39.1434 47.9259 39.6881 48.4088C40.1351 48.805 41.0395 49.1653 41.4307 48.5023C42.285 47.0556 39.789 44.2086 39.4436 45.7952Z" fill="#FF6BFF"/>
<path fill-rule="evenodd" clip-rule="evenodd" d="M43.0038 50.7981C42.4194 50.3208 43.3993 49.6653 43.7664 50.4824C44.0264 51.0612 43.3108 51.2989 43.0038 50.7529V50.7981Z" fill="#FF6BFF"/>
<path fill-rule="evenodd" clip-rule="evenodd" d="M42.6887 45.0748C42.3228 46.6026 44.7284 48.0388 44.9098 46.1965C44.9989 45.2896 44.3755 43.7259 43.3213 43.5891C42.2256 43.4461 42.4212 44.878 42.6887 45.0748Z" fill="#FF6BFF"/>
<path fill-rule="evenodd" clip-rule="evenodd" d="M45.7077 45.9297C44.9908 45.6437 45.6247 44.0726 46.102 45.3323C46.2314 45.6734 46.2085 46.5351 45.6173 46.0647L45.7077 45.9297Z" fill="#FF6BFF"/>
<path fill-rule="evenodd" clip-rule="evenodd" d="M43.6797 41.9649C43.0656 43.1052 44.9376 44.7543 45.2619 42.8569C45.348 42.3524 45.1728 41.487 44.6008 41.2945C44.0127 41.097 43.6735 41.825 43.6797 41.9643V41.9649Z" fill="#FF6BFF"/>
<path fill-rule="evenodd" clip-rule="evenodd" d="M46.1261 34.7618C45.7082 35.5374 46.9816 36.6585 47.202 35.3684C47.2608 35.0255 47.1413 34.4368 46.7525 34.3062C46.3526 34.1718 46.1217 34.6671 46.1261 34.7618Z" fill="#FF6BFF"/>
<path fill-rule="evenodd" clip-rule="evenodd" d="M30.501 25.3361L34.7822 46.9918L40.6767 53.5585L42.6446 54.8746L50.4203 50.7859L59.5895 10.1523L51.0988 50.7271L42.6013 55.7109L40.2415 54.1336L34.2294 47.1001L30.501 25.3361Z" fill="url(#paint3_linear_107_786)"/>
<path style="mix-blend-mode:screen" d="M35.5229 56.4775C42.0625 49.938 42.0625 39.3354 35.5229 32.7959C28.9833 26.2564 18.3805 26.2564 11.841 32.7959C5.30138 39.3354 5.30138 49.938 11.841 56.4775C18.3805 63.017 28.9833 63.017 35.5229 56.4775Z" fill="url(#paint4_radial_107_786)"/>
<path fill-rule="evenodd" clip-rule="evenodd" d="M33.5962 49.1152L31.9136 41.844L21.2179 36.7246L10.5222 37.5609L19.2952 51.311L31.9136 53.0183L33.5962 49.1152Z" fill="url(#paint5_radial_107_786)"/>
<path style="mix-blend-mode:screen" opacity="0.96" fill-rule="evenodd" clip-rule="evenodd" d="M10.5222 37.5609L17.2821 43.7024L33.5962 49.1152L31.9136 41.844L21.2179 36.7246L10.5222 37.5609Z" fill="url(#paint6_linear_107_786)"/>
<g style="mix-blend-mode:multiply" opacity="0.5">
<path fill-rule="evenodd" clip-rule="evenodd" d="M17.2821 43.702L19.2952 51.3106L10.5222 37.5605L17.2821 43.702Z" fill="#6746B3"/>
</g>
<g style="mix-blend-mode:soft-light">
<path fill-rule="evenodd" clip-rule="evenodd" d="M33.5962 49.1152L17.2821 43.7024L10.5222 37.5615L21.2179 36.7246L31.9136 41.8447L33.174 47.2922C33.174 47.2922 32.0393 42.9403 30.8316 41.8447C29.6244 40.749 22.7494 37.1802 21.0669 37.252C19.3843 37.3238 12.7148 37.6445 12.2035 38.1348C11.6922 38.6251 15.9549 42.3058 17.8516 43.4139C19.749 44.522 31.9384 48.3427 32.5023 48.23C33.0657 48.1174 33.2941 47.814 33.2941 47.814L33.5956 49.1159L33.5962 49.1152Z" fill="#B5CAF1"/>
</g>
<path fill-rule="evenodd" clip-rule="evenodd" d="M16.0972 42.626L17.8633 45.8994L19.2951 44.3704L16.0972 42.626Z" fill="#FF83BF"/>
<g style="mix-blend-mode:soft-light">
<path fill-rule="evenodd" clip-rule="evenodd" d="M33.5962 49.1157C33.5962 49.1157 32.199 52.5123 31.4779 52.3767C30.7567 52.2412 20.9468 51.3151 19.8957 50.4627C18.8446 49.6103 17.8628 45.9004 17.8628 45.9004L19.2946 51.312L31.9131 53.0193L33.5956 49.1163L33.5962 49.1157Z" fill="#F9F9F4"/>
</g>
<path fill-rule="evenodd" clip-rule="evenodd" d="M19.8363 51.0845C19.2984 50.0606 19.8351 48.2134 21.2032 48.3774C22.1986 48.4969 22.7557 49.5994 23.7523 49.5876C24.4389 49.5796 24.9985 49.0466 25.7246 49.1586C26.1777 49.2286 26.4185 49.5053 26.8067 49.6892C28.163 50.3317 29.5892 49.6217 30.9709 49.6396C32.4028 49.6576 32.9135 52.4383 31.6754 52.889C31.1814 53.0685 30.5221 52.5627 30.0517 52.4655C29.1992 52.2897 28.2292 52.2322 27.3446 52.1647C25.7983 52.0477 24.2705 51.7908 22.7377 51.5518C21.8637 51.4157 20.3854 51.4373 19.8369 51.0845H19.8363Z" fill="#FF1FC7"/>
<path fill-rule="evenodd" clip-rule="evenodd" d="M19.4152 45.7963C19.1757 46.6463 20.1216 47.7636 20.4695 46.5435C20.74 45.5958 19.3261 44.5329 19.175 45.7963H19.4152Z" fill="#FF1FC7"/>
<g style="mix-blend-mode:soft-light" opacity="0.5">
<path fill-rule="evenodd" clip-rule="evenodd" d="M23.6217 43.0324C22.2177 43.7319 22.1069 46.0031 23.202 46.9905C24.0346 47.7408 25.8861 48.4533 26.871 47.6646C28.3455 46.4835 27.6757 43.7758 26.3275 42.765C25.3736 42.0494 23.7913 41.8178 23.6223 43.0324H23.6217Z" fill="#FF1FC7"/>
</g>
<path fill-rule="evenodd" clip-rule="evenodd" d="M26.6866 48.4999C25.8509 48.6572 25.1625 50.0661 25.7859 50.7786C26.2242 51.2794 27.2412 51.0361 27.713 50.695C29.2024 49.6191 27.6368 47.2897 26.6872 48.4999H26.6866Z" fill="#FF6BFF"/>
<path fill-rule="evenodd" clip-rule="evenodd" d="M28.8494 50.7834C28.7677 50.1316 29.9086 50.3303 29.7235 50.9339C29.583 51.3919 28.8166 51.283 28.8494 50.7834Z" fill="#FF6BFF"/>
<path fill-rule="evenodd" clip-rule="evenodd" d="M23.9912 48.9201C23.1648 49.3516 24.1837 51.083 24.8275 49.8808C25.0213 49.5187 25.0015 49.1077 24.6901 48.8229C24.5031 48.652 24.2308 48.5121 24.0283 48.7362L23.9912 48.9207V48.9201Z" fill="#FF6BFF"/>
<path fill-rule="evenodd" clip-rule="evenodd" d="M10.5222 37.5605L19.2952 51.3106L31.9136 53.0179L33.5962 49.1149L31.9743 53.5013L19.1751 52.015L10.5222 37.5605Z" fill="url(#paint7_linear_107_786)"/>
<path fill-rule="evenodd" clip-rule="evenodd" d="M58.2314 29.6214L61.6479 17.6654L64.4806 16.7275L59.5896 29.6505L58.2314 29.6214Z" fill="#FF6BFF"/>
<g style="mix-blend-mode:soft-light">
<path fill-rule="evenodd" clip-rule="evenodd" d="M54.8621 36.8455L57.787 24.0451L61.1106 23.6953L56.4313 36.8795L54.8621 36.8455Z" fill="#A4FFFF"/>
</g>
<g style="mix-blend-mode:soft-light">
<path fill-rule="evenodd" clip-rule="evenodd" d="M57.6643 39.3447L61.8608 26.2069L67.0836 25.6572L62.3739 39.4035L57.6643 39.3447Z" fill="#FF9FCA"/>
</g>
<g style="mix-blend-mode:soft-light">
<path fill-rule="evenodd" clip-rule="evenodd" d="M26.9255 27.5572L25.2429 21.1477L26.9255 18.7031L27.3984 27.5572H26.9255Z" fill="#FF6BFF"/>
</g>
<g style="mix-blend-mode:soft-light">
<path fill-rule="evenodd" clip-rule="evenodd" d="M21.7125 54.0449H16.7819L14.9087 55.7931L21.7125 55.5752V54.0449Z" fill="#A4FFFF"/>
</g>
<defs>
<radialGradient id="paint0_radial_107_786" cx="0" cy="0" r="1" gradientUnits="userSpaceOnUse" gradientTransform="translate(44.246 34.0806) scale(22.6524 34.0398)">
<stop stop-color="#FF10FF"/>
<stop offset="0.02" stop-color="#F60FF6"/>
<stop offset="0.13" stop-color="#BD0BBD"/>
<stop offset="0.25" stop-color="#8A088A"/>
<stop offset="0.37" stop-color="#600660"/>
<stop offset="0.49" stop-color="#3D033D"/>
<stop offset="0.62" stop-color="#220222"/>
<stop offset="0.74" stop-color="#0F000F"/>
<stop offset="0.87" stop-color="#030003"/>
<stop offset="1"/>
</radialGradient>
<radialGradient id="paint1_radial_107_786" cx="0" cy="0" r="1" gradientUnits="userSpaceOnUse" gradientTransform="translate(45.0452 48.0916) scale(30.1675)">
<stop stop-color="#FF0066"/>
<stop offset="1" stop-color="#590048"/>
</radialGradient>
<linearGradient id="paint2_linear_107_786" x1="33.3914" y1="11.0856" x2="59.5896" y2="11.0856" gradientUnits="userSpaceOnUse">
<stop offset="0.04" stop-color="#AE4B98"/>
<stop offset="1" stop-color="#8B0048"/>
</linearGradient>
<linearGradient id="paint3_linear_107_786" x1="45.0452" y1="55.7109" x2="45.0452" y2="10.1523" gradientUnits="userSpaceOnUse">
<stop stop-color="#00FF91"/>
<stop offset="1" stop-color="#B63BEF"/>
</linearGradient>
<radialGradient id="paint4_radial_107_786" cx="0" cy="0" r="1" gradientUnits="userSpaceOnUse" gradientTransform="translate(23.9198 44.9947) scale(16.7832 16.7831)">
<stop stop-color="#FF10FF"/>
<stop offset="0.02" stop-color="#F60FF6"/>
<stop offset="0.13" stop-color="#BD0BBD"/>
<stop offset="0.25" stop-color="#8A088A"/>
<stop offset="0.37" stop-color="#600660"/>
<stop offset="0.49" stop-color="#3D033D"/>
<stop offset="0.62" stop-color="#220222"/>
<stop offset="0.74" stop-color="#0F000F"/>
<stop offset="0.87" stop-color="#030003"/>
<stop offset="1"/>
</radialGradient>
<radialGradient id="paint5_radial_107_786" cx="0" cy="0" r="1" gradientUnits="userSpaceOnUse" gradientTransform="translate(22.0592 50.9662) scale(22.0278)">
<stop stop-color="#FF0066"/>
<stop offset="1" stop-color="#590048"/>
</radialGradient>
<linearGradient id="paint6_linear_107_786" x1="10.5222" y1="42.9199" x2="33.5962" y2="42.9199" gradientUnits="userSpaceOnUse">
<stop offset="0.04" stop-color="#AE4B98"/>
<stop offset="1" stop-color="#8B0048"/>
</linearGradient>
<linearGradient id="paint7_linear_107_786" x1="22.0592" y1="53.5013" x2="22.0592" y2="37.5605" gradientUnits="userSpaceOnUse">
<stop stop-color="#00FF91"/>
<stop offset="1" stop-color="#B63BEF"/>
</linearGradient>
</defs>
</svg>
