<svg width="40" height="41" viewBox="0 0 40 41" fill="none" xmlns="http://www.w3.org/2000/svg">
<path fill-rule="evenodd" clip-rule="evenodd" d="M10.3232 20.5323C10.3232 15.1105 14.7523 10.7578 20.0977 10.7578C25.4431 10.7578 29.8721 15.1869 29.8721 20.5323C29.8721 25.8776 25.5194 30.3067 20.0977 30.3067C14.6759 30.3067 10.3232 25.954 10.3232 20.5323ZM13.8359 20.5323C13.8359 23.9686 16.6613 26.794 20.0977 26.794C23.534 26.794 26.3594 23.9686 26.3594 20.5323C26.3594 17.0959 23.534 14.2705 20.0977 14.2705C16.6613 14.2705 13.8359 17.0959 13.8359 20.5323Z" fill="#74FAC9"/>
<circle cx="29.8721" cy="10.7576" r="1.95489" fill="#74FAC9"/>
<path fill-rule="evenodd" clip-rule="evenodd" d="M28.2168 0.983398C31.5275 0.983398 34.4441 2.08696 36.4935 4.21527C38.543 6.26475 39.6466 9.10249 39.6466 12.4132V28.6514C39.6466 32.0409 38.543 34.9575 36.4147 37.0069C34.3652 38.9776 31.5275 40.0812 28.138 40.0812H12.0574C8.82557 40.0812 5.98783 39.0564 3.85952 37.0069C1.65239 34.8786 0.548828 31.9621 0.548828 28.5725V12.4132C0.548828 5.55531 5.12074 0.983398 11.9786 0.983398H28.2168ZM33.8923 34.405C35.3111 33.0649 36.0206 31.0943 36.0206 28.6507H36.1782V12.4125C36.1782 10.1265 35.3899 8.15589 34.0499 6.73702C32.631 5.31815 30.6604 4.60872 28.2956 4.60872H12.0574C9.69264 4.60872 7.64316 5.31815 6.30311 6.6582C4.88424 8.07707 4.17481 10.0477 4.17481 12.4125V28.5719C4.17481 31.0155 4.88424 32.9861 6.30311 34.405C7.72198 35.745 9.69264 36.4545 12.0574 36.4545H28.1379C30.5027 36.4545 32.4734 35.745 33.8923 34.405Z" fill="#74FAC9"/>
</svg>
