<svg width="34" height="35" viewBox="0 0 34 35" fill="none" xmlns="http://www.w3.org/2000/svg">
<path fill-rule="evenodd" clip-rule="evenodd" d="M0.76709 5.36858C0.76709 2.83653 2.62196 0.9375 5.30122 0.9375C7.98047 0.9375 9.62925 2.83653 9.62925 5.36858C9.62925 7.90062 7.77438 9.79966 5.09512 9.79966C2.41586 9.79966 0.76709 7.90062 0.76709 5.36858ZM0.76709 12.0137H7.41371V34.1691H0.76709V12.0137ZM25.7388 12.0137C21.7959 12.0137 20.1061 14.1577 19.1673 15.5871V12.5497H11.8447C12.0325 14.5151 11.8447 34.1691 11.8447 34.1691H19.1673V22.0193C19.1673 21.3046 19.1673 20.7686 19.355 20.2326C19.9183 18.9819 21.0448 17.5525 23.1102 17.5525C25.7388 17.5525 26.8653 19.5179 26.8653 22.3767V34.1691H34.0001V21.662C34.0001 15.0511 30.4327 12.0137 25.7388 12.0137Z" fill="#74FAC9"/>
</svg>
