<svg width="49" height="25" viewBox="0 0 49 25" fill="none" xmlns="http://www.w3.org/2000/svg">
<g clip-path="url(#clip0_7_33)">
<path d="M48.8007 12.4418L48.7986 12.4528L48.7976 12.4585V12.4625C48.7925 12.4712 48.8086 12.4926 48.8178 12.4916L48.811 12.4451C48.81 12.4324 48.8079 12.419 48.8069 12.4063L48.8045 12.4197L48.8004 12.4414L48.8007 12.4418Z" fill="white"/>
<path d="M48.803 12.3661C48.804 12.3792 48.8061 12.3929 48.8071 12.4063L48.8081 12.4013L48.8095 12.3929C48.8071 12.3839 48.805 12.3748 48.803 12.3658V12.3661Z" fill="white"/>
<path d="M48.8265 12.2868L48.8123 12.3755L48.8093 12.3936C48.8136 12.4133 48.8182 12.4334 48.8225 12.4538C48.8248 12.4658 48.8278 12.4776 48.8307 12.4903L48.8225 12.4535L48.8205 12.4451L48.8235 12.4438H48.8242C48.8331 12.4407 48.8485 12.4602 48.8446 12.4675V12.4602L48.8466 12.4484L48.8485 12.426L48.8532 12.3815L48.8617 12.2915L48.8765 12.1121L48.8986 11.7523L48.8528 12.1091L48.8265 12.2868Z" fill="white"/>
<path d="M48.8208 12.5315C48.9698 13.9851 48.8656 15.4604 48.4884 16.852C48.1065 18.244 47.424 19.5396 46.4902 20.6026C44.6331 22.7724 41.8389 23.8731 39.0615 24.1205C37.665 24.2587 36.2653 24.1519 34.9258 23.7875C34.252 23.6024 33.6071 23.3651 32.961 23.0662C32.3425 22.7754 31.723 22.4233 31.1395 22.0384C28.7838 20.4871 26.8308 18.3534 25.0383 16.104C24.1381 14.9764 23.2435 13.8314 22.3759 12.6748C21.506 11.5171 20.6592 10.3306 19.7369 9.18595C18.8093 8.04533 17.8254 6.93884 16.6899 5.97159C15.5633 5.005 14.2601 4.1887 12.8129 3.75628C12.5619 3.67863 12.2926 3.61504 12.03 3.56149V3.5568C12.0257 3.55781 12.0218 3.55881 12.0182 3.55881C11.9187 3.53839 11.8162 3.5153 11.7219 3.49923C11.3463 3.43464 10.9707 3.39749 10.6013 3.38042C9.86418 3.34561 9.12707 3.36201 8.38996 3.45907C7.76489 3.5394 7.14443 3.67762 6.5411 3.87208C5.40957 4.35504 4.58547 4.74863 4.24641 4.98158C3.01669 5.82734 2.04036 7.00043 1.36948 8.31576C0.694654 9.63176 0.320663 11.0803 0.172715 12.5315C0.293973 11.8113 0.475861 11.1034 0.714754 10.4179C0.941455 9.72882 1.23801 9.06546 1.59619 8.44294C2.15437 7.472 2.88654 6.60717 3.74984 5.92373C3.08523 6.75175 2.47663 7.76151 2.02619 8.93728C1.32072 10.7436 1.03174 12.9432 1.38926 15.1712C1.56884 16.2827 1.90197 17.3517 2.40282 18.3012C2.89082 19.2518 3.58674 20.0778 4.33538 20.6842C5.86264 21.9276 7.55829 22.4668 8.97089 22.6646C10.3957 22.859 11.5519 22.7034 12.3233 22.5541C13.097 22.3942 13.5062 22.2429 13.5075 22.2486C13.5072 22.2429 13.0805 22.3386 12.3039 22.4129C11.5298 22.4775 10.3914 22.5113 9.04865 22.2148C7.72073 21.9209 6.15426 21.286 4.8303 20.1002C3.47866 18.9338 2.59986 17.085 2.27695 15.0239C1.94645 12.9589 2.15569 10.92 2.73892 9.20202C3.31325 7.47334 4.22466 6.0653 5.17727 5.0686C5.21121 5.03312 5.24482 5.00132 5.27876 4.96685C6.2742 4.48557 7.35992 4.20476 8.46048 4.10603C8.93958 4.06285 9.42495 4.05884 9.90998 4.07222C9.01833 4.38482 8.16458 4.8149 7.40309 5.37852C6.04585 6.37757 5.00032 7.76787 4.36536 9.30744C3.72678 10.8477 3.46317 12.5285 3.5785 14.1738C3.63748 14.9958 3.79367 15.8121 4.07342 16.5839C4.35087 17.3527 4.75978 18.0844 5.33379 18.6567C4.78944 18.0556 4.42435 17.3129 4.18908 16.5438C3.95216 15.772 3.8398 14.966 3.82267 14.1618C3.79004 12.5529 4.13108 10.9424 4.81086 9.51161C5.48799 8.08014 6.53056 6.84245 7.81926 5.99134C9.1129 5.13721 10.6085 4.67634 12.1582 4.54112L12.5852 4.49594C12.7348 4.5361 12.4314 4.44507 12.5852 4.49594C13.896 4.9297 15.0783 5.70651 16.1347 6.63428C17.1931 7.56404 18.1315 8.65145 19.0169 9.77735C19.723 10.68 20.4051 11.6145 21.0925 12.5506C19.7903 14.3238 18.4778 16.0853 16.8771 17.5512C16.022 18.33 15.0678 19.0041 14.0087 19.4706C12.9523 19.9412 11.7964 20.1909 10.628 20.2287C11.7954 20.2739 12.9816 20.1072 14.0983 19.7019C15.217 19.3006 16.2537 18.6734 17.1898 17.9324C18.8788 16.5896 20.2951 14.961 21.6734 13.3364C22.3927 14.303 23.1252 15.2545 23.8692 16.2017C22.1265 18.4505 20.2163 20.5711 17.8916 22.102C16.7275 22.8751 15.4375 23.4839 14.1013 23.8296C13.4268 24.0094 12.7487 24.1108 12.0462 24.1617C11.3634 24.2155 10.6583 24.1834 9.96171 24.1138C7.18364 23.837 4.41809 22.6944 2.55538 20.5252C1.62024 19.4603 0.926627 18.1717 0.531877 16.7844C0.144706 15.4112 0.0287199 13.9536 0.170737 12.5144C0.171726 12.5198 0.172385 12.5255 0.173374 12.5315C0.0244363 11.0773 0.140752 9.60264 0.532207 8.21435C0.927615 6.82605 1.62123 5.5375 2.55571 4.47419C3.48196 3.40452 4.63984 2.55474 5.91668 1.97004C7.19319 1.38165 8.56262 1.02588 9.96204 0.885976C11.3624 0.731349 12.7559 0.819038 14.101 1.17013C14.7761 1.34852 15.4223 1.58012 16.0695 1.87599C16.6876 2.16282 17.3081 2.51324 17.891 2.8978C20.246 4.44708 22.1746 6.60114 23.9335 8.87971C23.9335 8.87971 28.1647 14.3951 29.3262 15.3821C29.3931 15.4564 29.4369 15.5062 29.4425 15.5133L29.4099 15.4497C29.6943 15.6883 29.9786 15.9256 30.2752 16.1478C31.8163 17.3032 33.5225 18.241 35.3496 18.827C37.1625 19.397 39.1705 19.638 41.0079 19.0064C41.9167 18.6938 42.747 18.1402 43.3645 17.4039C43.9893 16.6716 44.4087 15.7867 44.6651 14.869C44.3702 15.7747 43.9145 16.6325 43.2739 17.3209C42.6396 18.0131 41.8168 18.5084 40.9334 18.7698C39.1481 19.2976 37.2311 18.9837 35.5054 18.3565C33.7673 17.7135 32.158 16.7356 30.723 15.5584C29.804 14.8057 27.9376 12.5318 27.9376 12.5318C27.9294 12.5211 27.9218 12.5104 27.9139 12.5004C28.0256 12.3521 28.1377 12.2035 28.2494 12.0559C28.8207 11.2988 29.3944 10.5465 29.9852 9.81584C31.2831 8.21435 32.7079 6.66406 34.3901 5.57197C35.3608 5.12114 36.3882 4.85439 37.4416 4.86711C38.5379 4.87581 39.6312 5.21419 40.5884 5.8096C41.5489 6.403 42.3776 7.23203 43.0416 8.18021C43.7016 9.13039 44.2222 10.2021 44.4789 11.3537C44.3023 10.1857 43.8532 9.06345 43.2459 8.04332C42.633 7.02553 41.8379 6.10145 40.8576 5.39525C39.9953 4.76938 38.9748 4.33362 37.9016 4.1733C38.0881 4.14418 38.2763 4.12008 38.4647 4.10235C39.163 4.03842 39.8691 4.0324 40.5627 4.08595C41.9582 4.19171 43.3279 4.56924 44.5227 5.31727C45.7192 6.04924 46.7077 7.12426 47.4086 8.376C48.006 9.42492 48.371 10.5589 48.6613 11.7564C48.7101 11.9569 48.7572 12.1593 48.8027 12.3638C48.5707 9.54809 47.2781 6.55763 44.7933 4.8882C43.5606 4.04947 42.0887 3.58224 40.624 3.42025C39.8846 3.33892 39.1465 3.33022 38.4104 3.37674C38.038 3.40084 37.6696 3.44468 37.2957 3.51396C37.1082 3.54977 36.9207 3.59194 36.7516 3.63311C36.5688 3.68097 36.3809 3.73285 36.2043 3.79075C35.6573 3.96245 35.1314 4.18937 34.627 4.45611C34.3756 4.53209 33.9436 4.85372 33.9436 4.85372C33.3798 5.20615 32.845 5.60276 32.3435 6.02916C31.208 6.99072 30.2103 8.0865 29.2698 9.21239C28.593 10.031 27.9521 10.8698 27.3152 11.7078L25.1108 8.80708C26.7949 6.70456 28.6118 4.71182 30.78 3.20303C31.923 2.40313 33.1537 1.7565 34.4728 1.34249C35.7882 0.929486 37.1625 0.7521 38.5474 0.836107C41.3008 0.988726 44.1079 1.9282 46.0846 3.9427C47.0764 4.93238 47.8389 6.15801 48.3061 7.50815C48.7704 8.85628 48.9605 10.3085 48.8989 11.753C49.2578 8.88808 48.4337 5.79454 46.4296 3.605C45.4332 2.50989 44.1945 1.66748 42.8455 1.08779C41.4972 0.502087 40.0526 0.189152 38.5965 0.0629736C37.1408 -0.0698984 35.6366 0.0843937 34.2263 0.509785C32.8137 0.926139 31.4746 1.60255 30.2613 2.42455C28.0207 3.9524 26.1784 5.94615 24.4953 8.00985C22.7496 5.80424 20.8061 3.66357 18.3869 2.1086C17.7562 1.70831 17.111 1.35488 16.4148 1.04596C15.7456 0.7521 15.0266 0.505434 14.3053 0.328717C12.8571 -0.0350906 11.3279 -0.0839553 9.87275 0.119201C6.95793 0.475646 4.06156 1.79734 2.19029 4.16192C0.326924 6.49739 -0.347577 9.63377 0.167113 12.4994C-0.348236 15.3633 0.328901 18.5054 2.19095 20.8362C3.11818 22.0019 4.31627 22.9447 5.64089 23.6128C6.95793 24.2862 8.42193 24.6911 9.87308 24.8789C10.6056 24.9716 11.3427 25.0262 12.0976 24.9873C12.8314 24.9549 13.5843 24.8498 14.3053 24.6704C15.7666 24.3156 17.1288 23.6941 18.3862 22.8905C19.6433 22.0916 20.7702 21.1176 21.8124 20.0654C22.7713 19.0988 23.6541 18.0522 24.4943 16.9903C26.272 19.1671 28.2296 21.2763 30.6422 22.8286C31.2723 23.2279 31.9164 23.5833 32.6094 23.8949C33.277 24.1914 33.993 24.4438 34.712 24.6269C36.1592 25.0041 37.6782 25.0744 39.1412 24.8876C40.6016 24.7139 42.0567 24.329 43.3872 23.671C44.7191 23.0194 45.9258 22.0819 46.854 20.9142C48.7286 18.5633 49.3447 15.4001 48.8208 12.5315Z" fill="white"/>
<path d="M48.8029 12.3667H48.8033C48.8033 12.3667 48.8029 12.3641 48.802 12.3628C48.8029 12.3641 48.8029 12.3654 48.8029 12.3667Z" fill="white"/>
<path d="M45.3872 17.7145C44.7147 18.9461 43.7001 20.1112 42.3277 20.8187C40.9675 21.542 39.3005 21.7716 37.6283 21.545C35.9488 21.3275 34.2643 20.6832 32.6751 19.7862C29.4858 17.9675 26.9654 15.3837 24.9864 12.8457C24.4912 12.2132 24.0368 11.5579 23.5603 10.9367C23.0888 10.3162 22.6182 9.72476 22.1503 9.16349C21.2152 8.04027 20.2913 7.03888 19.4009 6.1737C17.6246 4.43733 15.9556 3.27295 14.6923 2.70498C13.4276 2.12462 12.6388 2.12329 12.647 2.11124C12.6388 2.12228 13.4234 2.18487 14.6307 2.8335C15.838 3.47008 17.4104 4.70508 19.0826 6.49634C19.9212 7.38963 20.7911 8.41612 21.6742 9.55842C22.1158 10.1294 22.5612 10.7295 23.0074 11.3567C23.4542 11.9782 23.8898 12.6473 24.3847 13.315C26.3413 15.9607 28.8924 18.6734 32.2385 20.5848C33.9068 21.5256 35.701 22.2013 37.5245 22.4129C39.3371 22.6338 41.1893 22.3466 42.6849 21.4992C44.1944 20.6691 45.263 19.3454 45.9302 18.0073C46.5902 16.6535 46.9497 15.3034 47.098 14.0376C47.2384 12.7711 47.1029 11.6057 46.8242 10.6428C46.5474 9.67623 46.149 8.90745 45.7832 8.31505C45.0346 7.13728 44.4662 6.61248 44.4784 6.60378C44.4649 6.61047 44.9947 7.17978 45.662 8.38768C45.9866 8.99246 46.3316 9.76827 46.5487 10.7154C46.7682 11.6596 46.8403 12.7771 46.6522 13.9773C46.4597 15.1698 46.0515 16.4724 45.3875 17.7141L45.3872 17.7145Z" fill="white"/>
</g>
<defs>
<clipPath id="clip0_7_33">
<rect width="49" height="25" fill="white"/>
</clipPath>
</defs>
</svg>
