<svg width="42" height="36" viewBox="0 0 42 36" fill="none" xmlns="http://www.w3.org/2000/svg">
<path d="M41.8119 4.84078C40.3023 5.54805 38.6788 6.0253 36.9743 6.2394C38.7138 5.14076 40.0488 3.40007 40.6779 1.32468C39.0503 2.34308 37.2486 3.08251 35.3296 3.48119C33.7936 1.75474 31.6044 0.675781 29.1821 0.675781C24.5308 0.675781 20.7597 4.65322 20.7597 9.55898C20.7597 10.2551 20.8341 10.9327 20.9778 11.5829C13.9779 11.2129 7.77137 7.67669 3.61736 2.30186C2.89261 3.61338 2.4772 5.13909 2.4772 6.76772C2.4772 9.84946 3.96403 12.5682 6.22395 14.1617C4.8437 14.1149 3.54445 13.7158 2.4092 13.0501C2.40845 13.087 2.40845 13.1244 2.40845 13.1626C2.40845 17.4658 5.3117 21.0561 9.16504 21.8727C8.4582 22.0753 7.71404 22.1843 6.94579 22.1843C6.40253 22.1843 5.8752 22.129 5.36087 22.0247C6.43312 25.5536 9.54346 28.1222 13.2284 28.1938C10.3459 30.5766 6.71462 31.9966 2.76811 31.9966C2.08861 31.9966 1.41844 31.9541 0.759277 31.8726C4.48728 34.3934 8.91396 35.8638 13.6702 35.8638C29.1626 35.8638 37.6335 22.3277 37.6335 10.5889C37.6335 10.2044 37.6262 9.82028 37.6099 9.43962C39.255 8.18734 40.6836 6.6227 41.8119 4.84078Z" fill="#74FAC9"/>
</svg>
