<svg width="52" height="37" viewBox="0 0 52 37" fill="none" xmlns="http://www.w3.org/2000/svg">
<path d="M50.058 6.43319C49.4735 4.27026 47.7515 2.56711 45.5646 1.98911C41.6004 0.938477 25.7066 0.938477 25.7066 0.938477C25.7066 0.938477 9.81267 0.938477 5.84845 1.98911C3.662 2.56711 1.93953 4.27026 1.35502 6.43319C0.293213 10.3534 0.293213 18.5327 0.293213 18.5327C0.293213 18.5327 0.293213 26.7119 1.35502 30.6317C1.93953 32.7947 3.662 34.4982 5.84845 35.0762C9.81267 36.1265 25.7066 36.1265 25.7066 36.1265C25.7066 36.1265 41.6004 36.1265 45.5646 35.0762C47.7515 34.4982 49.4735 32.7947 50.058 30.6317C51.1203 26.7119 51.1203 18.5327 51.1203 18.5327C51.1203 18.5327 51.1203 10.3534 50.058 6.43319Z" fill="#74FAC9"/>
<path d="M21.7969 26.352L35.4811 18.5324L21.7969 10.7129L21.7969 26.352Z" fill="#131D22"/>
</svg>
