<?xml version="1.0" encoding="UTF-8"?><svg id="a" xmlns="http://www.w3.org/2000/svg" viewBox="0 0 2000 2000"><path d="M1349,1103.95l-327.5-181.94-327.5,181.94v-371.9l327.5,181.94,327.5-181.94v371.9Zm-320.29-185.95l313.29,174.05v-348.1l-313.29,174.05Zm-327.71-174.05v348.1l313.29-174.05-313.29-174.05Z"/><rect x="1296" y="815" width="7" height="213"/><rect x="738" y="815" width="7" height="213"/><g><path d="M760.13,1201c-.93-2.38-1.78-4.67-2.55-6.87-.78-2.2-1.52-4.34-2.23-6.43h-23.7c-.81,2.1-1.6,4.24-2.38,6.44-.77,2.2-1.59,4.49-2.46,6.86h-4.97c1.84-5.05,3.58-9.75,5.22-14.12,1.64-4.36,3.25-8.49,4.82-12.38s3.14-7.63,4.69-11.22c1.55-3.59,3.19-7.19,4.9-10.79h4.2c1.71,3.59,3.33,7.19,4.87,10.78,1.54,3.6,3.09,7.34,4.67,11.23,1.58,3.89,3.18,8.02,4.81,12.39,1.62,4.37,3.41,9.07,5.36,14.12h-5.25Zm-16.69-43.05c-1.76,4.03-3.47,8.12-5.13,12.27-1.66,4.15-3.39,8.62-5.17,13.42h20.71c-1.79-4.81-3.54-9.29-5.23-13.44-1.7-4.15-3.42-8.24-5.18-12.25Z"/><path d="M793.31,1201v-48.51h27.65v4.13h-22.89v17.08h20.3v4.13h-20.3v23.17h-4.76Z"/><path d="M882.49,1152.49v4.13h-15.54v44.38h-4.76v-44.38h-15.54v-4.13h35.84Z"/><path d="M911.05,1201v-48.51h28v4.13h-23.24v16.87h20.72v4.06h-20.72v19.32h25.06v4.13h-29.82Z"/><path d="M1003.24,1167.05c0,3.64-.96,6.51-2.87,8.61-1.91,2.1-4.43,3.62-7.56,4.55,.75,.93,1.71,2.19,2.91,3.78,1.19,1.59,2.41,3.33,3.67,5.21,1.26,1.89,2.5,3.86,3.71,5.92,1.21,2.05,2.24,4.01,3.08,5.88h-5.11c-.98-1.87-2.04-3.73-3.18-5.6-1.14-1.87-2.31-3.68-3.5-5.43s-2.35-3.37-3.47-4.86c-1.12-1.49-2.1-2.8-2.94-3.92-1.49,.14-2.99,.21-4.48,.21h-7.84v19.6h-4.76v-47.6c1.68-.47,3.65-.81,5.92-1.02,2.26-.21,4.35-.31,6.27-.31,6.67,0,11.7,1.26,15.08,3.78,3.38,2.52,5.07,6.25,5.07,11.2Zm-19.6-10.85c-1.77,0-3.33,.06-4.66,.17-1.33,.12-2.44,.22-3.32,.32v20.65h6.58c2.19,0,4.27-.1,6.23-.31s3.66-.68,5.11-1.4c1.45-.72,2.59-1.76,3.43-3.12,.84-1.35,1.26-3.2,1.26-5.53,0-2.15-.42-3.92-1.26-5.32-.84-1.4-1.94-2.51-3.29-3.33-1.35-.82-2.91-1.38-4.66-1.68s-3.56-.46-5.42-.46Z"/><path d="M1034.88,1152.49c1.4,4.15,2.75,8.08,4.07,11.79,1.31,3.71,2.6,7.3,3.87,10.77,1.27,3.47,2.55,6.88,3.84,10.22,1.29,3.34,2.7,6.71,4.22,10.12,1.45-3.35,2.83-6.7,4.15-10.04,1.32-3.34,2.63-6.75,3.92-10.22,1.29-3.47,2.58-7.08,3.88-10.8,1.29-3.73,2.64-7.68,4.04-11.85h5.04c-2.14,6.13-4.07,11.51-5.79,16.12-1.72,4.61-3.31,8.79-4.77,12.53s-2.85,7.18-4.18,10.33-2.72,6.33-4.17,9.53h-4.47c-1.42-3.23-2.8-6.43-4.16-9.57-1.36-3.15-2.78-6.59-4.26-10.31s-3.08-7.9-4.79-12.52c-1.71-4.62-3.63-9.98-5.77-16.1h5.32Z"/><path d="M1099.84,1201v-48.51h28v4.13h-23.24v16.87h20.72v4.06h-20.72v19.32h25.06v4.13h-29.82Z"/><path d="M1192.03,1167.05c0,3.64-.96,6.51-2.87,8.61-1.91,2.1-4.43,3.62-7.56,4.55,.75,.93,1.71,2.19,2.91,3.78,1.19,1.59,2.42,3.33,3.67,5.21s2.5,3.86,3.71,5.92c1.21,2.05,2.24,4.01,3.08,5.88h-5.11c-.98-1.87-2.04-3.73-3.18-5.6-1.14-1.87-2.31-3.68-3.5-5.43-1.19-1.75-2.34-3.37-3.46-4.86-1.12-1.49-2.1-2.8-2.94-3.92-1.49,.14-2.99,.21-4.48,.21h-7.84v19.6h-4.76v-47.6c1.68-.47,3.65-.81,5.92-1.02,2.26-.21,4.35-.31,6.27-.31,6.67,0,11.7,1.26,15.08,3.78,3.38,2.52,5.07,6.25,5.07,11.2Zm-19.6-10.85c-1.77,0-3.33,.06-4.66,.17-1.33,.12-2.44,.22-3.33,.32v20.65h6.58c2.19,0,4.27-.1,6.23-.31s3.66-.68,5.11-1.4,2.59-1.76,3.43-3.12c.84-1.35,1.26-3.2,1.26-5.53,0-2.15-.42-3.92-1.26-5.32-.84-1.4-1.94-2.51-3.29-3.33-1.35-.82-2.91-1.38-4.66-1.68s-3.56-.46-5.42-.46Z"/><path d="M1234.38,1197.92c3.78,0,6.72-.69,8.82-2.07,2.1-1.38,3.15-3.61,3.15-6.7,0-1.78-.34-3.26-1.02-4.46s-1.57-2.2-2.69-3.02-2.4-1.52-3.85-2.1-2.96-1.19-4.55-1.84c-2.01-.79-3.8-1.6-5.39-2.43-1.59-.83-2.94-1.78-4.06-2.83-1.12-1.05-1.97-2.25-2.55-3.6-.58-1.35-.88-2.94-.88-4.76,0-4.15,1.38-7.3,4.13-9.45,2.75-2.15,6.58-3.22,11.48-3.22,1.31,0,2.59,.09,3.85,.28,1.26,.19,2.44,.43,3.54,.74,1.1,.3,2.1,.64,3.01,1.01,.91,.37,1.67,.77,2.28,1.19l-1.68,3.99c-1.35-.93-3-1.68-4.93-2.24-1.94-.56-4.03-.84-6.26-.84-1.54,0-2.95,.15-4.24,.46-1.28,.3-2.39,.79-3.33,1.47-.93,.68-1.67,1.53-2.21,2.55-.54,1.03-.8,2.26-.8,3.71s.28,2.75,.84,3.78c.56,1.03,1.34,1.91,2.34,2.66,1,.75,2.18,1.42,3.54,2.03s2.82,1.24,4.41,1.89c1.91,.79,3.72,1.59,5.42,2.38,1.7,.79,3.19,1.73,4.45,2.8,1.26,1.07,2.26,2.38,3.01,3.92,.75,1.54,1.12,3.43,1.12,5.67,0,4.39-1.53,7.68-4.58,9.87-3.06,2.19-7.2,3.29-12.42,3.29-1.87,0-3.57-.12-5.11-.35-1.54-.23-2.92-.53-4.13-.88-1.21-.35-2.24-.71-3.08-1.08-.84-.37-1.49-.7-1.96-.98l1.54-4.13c.47,.28,1.1,.61,1.89,.98,.79,.37,1.73,.73,2.8,1.08,1.07,.35,2.29,.64,3.64,.88,1.35,.23,2.85,.35,4.48,.35Z"/><path d="M1281.14,1201v-48.51h28v4.13h-23.24v16.87h20.72v4.06h-20.72v19.32h25.06v4.13h-29.82Z"/></g></svg>